<svg width="88" height="20" viewBox="0 0 88 20" fill="none" xmlns="http://www.w3.org/2000/svg">
<path d="M45.4207 15.1728C44.5985 16.184 43.4598 16.6897 42.0047 16.6897C40.8619 16.6897 39.9 16.4266 39.1189 15.9004C38.3379 15.3742 37.7542 14.6508 37.3678 13.73C37.0718 13.0311 36.9238 12.1802 36.9238 11.1772V3.33398H39.0573V11.0662C39.0573 12.1268 39.3327 12.9777 39.8835 13.619C40.4426 14.2602 41.2195 14.5809 42.2143 14.5809C42.9378 14.5809 43.5421 14.4041 44.0271 14.0506C44.5122 13.6971 44.878 13.2243 45.1247 12.6324C45.2973 12.1884 45.3837 11.6664 45.3837 11.0662V3.33398H47.5294V16.3937H45.5193L45.4207 15.1728Z" fill="#FFF9DC"/>
<path d="M78.6047 4.87992C79.4269 3.86869 80.5655 3.36308 82.0207 3.36308C83.1635 3.36308 84.1254 3.62616 84.9064 4.15233C85.6875 4.6785 86.2712 5.40198 86.6576 6.32278C86.9536 7.0216 87.1016 7.87252 87.1016 8.87553V16.7188H84.9681V8.98652C84.9681 7.92596 84.6927 7.07504 84.1419 6.43377C83.5828 5.7925 82.8059 5.47187 81.8111 5.47187C81.0876 5.47187 80.4833 5.64863 79.9983 6.00215C79.5132 6.35567 79.1474 6.8284 78.9007 7.42034C78.7281 7.8643 78.6417 8.38635 78.6417 8.98652V16.7188H76.4959V3.65905H78.5061L78.6047 4.87992Z" fill="#FFF9DC"/>
<path d="M61.1037 3.30273V16.7149H58.834V3.30273H61.1037Z" fill="#FFF9DC"/>
<path d="M59.0695 2.11994C59.3086 2.35738 59.6046 2.47609 59.9575 2.47609C60.2991 2.47609 60.5894 2.35738 60.8284 2.11994C61.0675 1.88251 61.187 1.58854 61.187 1.23805C61.187 0.88755 61.0675 0.593584 60.8284 0.356151C60.5894 0.118717 60.2991 0 59.9575 0C59.6046 0 59.3086 0.118717 59.0695 0.356151C58.8305 0.593584 58.7109 0.88755 58.7109 1.23805C58.7109 1.58854 58.8305 1.88251 59.0695 2.11994Z" fill="#FFF9DC"/>
<path d="M74.7248 3.30273V16.7149H72.4551V3.30273H74.7248Z" fill="#FFF9DC"/>
<path d="M72.6906 2.11994C72.9297 2.35738 73.2257 2.47609 73.5786 2.47609C73.9201 2.47609 74.2104 2.35738 74.4495 2.11994C74.6886 1.88251 74.8081 1.58854 74.8081 1.23805C74.8081 0.88755 74.6886 0.593584 74.4495 0.356151C74.2104 0.118717 73.9201 0 73.5786 0C73.2257 0 72.9297 0.118717 72.6906 0.356151C72.4516 0.593584 72.332 0.88755 72.332 1.23805C72.332 1.58854 72.4516 1.88251 72.6906 2.11994Z" fill="#FFF9DC"/>
<path fill-rule="evenodd" clip-rule="evenodd" d="M27.4299 11.1472L27.4299 16.6946H25.1602V3.32372L27.4299 3.32372L27.4299 8.86982C28.161 8.86981 28.8849 8.72581 29.5603 8.44605C30.2357 8.16628 30.8494 7.75621 31.3664 7.23926C31.8833 6.72231 32.2934 6.1086 32.5731 5.43317C32.8529 4.75774 32.9969 4.03381 32.9969 3.30273H35.2708C35.2708 4.33242 35.068 5.35203 34.6739 6.30334C34.2799 7.25465 33.7023 8.11903 32.9742 8.84713C32.528 9.29331 32.0307 9.68296 31.4935 10.0085C32.0307 10.334 32.528 10.7237 32.9742 11.1698C33.7023 11.8979 34.2799 12.7623 34.6739 13.7136C35.068 14.6649 35.2708 15.6845 35.2708 16.7142H32.9969C32.9969 15.9832 32.8529 15.2592 32.5731 14.5838C32.2934 13.9084 31.8833 13.2947 31.3664 12.7777C30.8494 12.2608 30.2357 11.8507 29.5603 11.5709C28.8849 11.2912 28.161 11.1472 27.4299 11.1472Z" fill="#FFF9DC"/>
<path fill-rule="evenodd" clip-rule="evenodd" d="M54.0611 3.89959C55.0124 3.50555 56.032 3.30273 57.0617 3.30273V5.57661C56.3306 5.57661 55.6067 5.72061 54.9312 6.00038C54.2558 6.28016 53.6421 6.69022 53.1251 7.20718C52.6082 7.72413 52.1981 8.33784 51.9184 9.01327C51.6386 9.6887 51.4946 10.4126 51.4946 11.1437H51.4908L51.4908 16.6949H49.221L49.221 11.1437H49.2207C49.2207 11.1191 49.2208 11.0945 49.221 11.07L49.2211 3.32396L51.4908 3.32397V5.62589C51.4996 5.61701 51.5084 5.60814 51.5173 5.5993C52.2454 4.8712 53.1098 4.29364 54.0611 3.89959Z" fill="#FFF9DC"/>
<path fill-rule="evenodd" clip-rule="evenodd" d="M67.6782 3.89959C68.6296 3.50555 69.6492 3.30273 70.6789 3.30273V5.57661C69.9478 5.57661 69.2239 5.72061 68.5484 6.00038C67.873 6.28016 67.2593 6.69022 66.7423 7.20718C66.2254 7.72413 65.8153 8.33784 65.5355 9.01327C65.2558 9.6887 65.1118 10.4126 65.1118 11.1437H65.108L65.108 16.6949H62.8382L62.8382 11.1437H62.8379C62.8379 11.1191 62.838 11.0945 62.8382 11.07L62.8382 3.32396L65.108 3.32397V5.62589C65.1168 5.61701 65.1256 5.60814 65.1345 5.5993C65.8626 4.8712 66.7269 4.29364 67.6782 3.89959Z" fill="#FFF9DC"/>
<mask id="mask0_13957_2611" style="mask-type:alpha" maskUnits="userSpaceOnUse" x="0" y="0" width="20" height="20">
<rect y="0.441406" width="19.1295" height="19.1295" fill="white"/>
</mask>
<g mask="url(#mask0_13957_2611)">
<mask id="mask1_13957_2611" style="mask-type:alpha" maskUnits="userSpaceOnUse" x="3" y="-2" width="22" height="25">
<path d="M10.1273 22.2286H23.7659V-1.47656H10.1273L8.76937 4.45712L5.64016 7.61584L3.89844 10.2727L7.64758 14.1695L10.1273 22.2286Z" fill="#0DAB0C" stroke="black"/>
</mask>
<g mask="url(#mask1_13957_2611)">
<path fill-rule="evenodd" clip-rule="evenodd" d="M11.1825 19.5748H19.1295L19.1295 0.445314L0 0.445312V8.38734C1.04242 8.38722 2.07463 8.18184 3.0377 7.78292C4.00105 7.38389 4.87638 6.79902 5.61369 6.0617C6.35101 5.32439 6.93588 4.44907 7.33491 3.48572C7.73394 2.52237 7.93932 1.48985 7.93932 0.44713L11.1825 0.44713C11.1825 1.91575 10.8932 3.37 10.3312 4.72683C9.7692 6.08366 8.94544 7.31651 7.90697 8.35498C7.27053 8.99142 6.56109 9.54721 5.79484 10.0115C6.56109 10.4759 7.27053 11.0316 7.90697 11.6681C8.94544 12.7066 9.76921 13.9394 10.3312 15.2962C10.8931 16.6527 11.1824 18.1066 11.1825 19.5748ZM7.93933 19.5748C7.93917 18.5325 7.7338 17.5003 7.33491 16.5374C6.93588 15.574 6.35101 14.6987 5.61369 13.9614C4.87638 13.224 4.00106 12.6392 3.03771 12.2401C2.07463 11.8412 1.04242 11.6358 0 11.6357V19.5748H7.93933Z" fill="#0DAB0C"/>
</g>
<mask id="mask2_13957_2611" style="mask-type:alpha" maskUnits="userSpaceOnUse" x="-5" y="-3" width="15" height="26">
<path d="M9.0918 -1.50794L-3.89735 -1.50794L-3.89735 22.1973L9.0918 22.1973L9.0918 16.6474L6.78917 12.9277L4.22087 10.0052L9.0918 4.75047L9.0918 -1.50794Z" fill="#D9D9D9" stroke="black"/>
</mask>
<g mask="url(#mask2_13957_2611)">
<path fill-rule="evenodd" clip-rule="evenodd" d="M7.90873 11.631C7.27229 10.9946 6.56284 10.4388 5.7966 9.97447C6.56284 9.51015 7.27229 8.95435 7.90873 8.31791C8.9472 7.27944 9.77096 6.04659 10.333 4.68976C10.895 3.33296 11.1843 1.87875 11.1843 0.410157L19.1314 0.410158L19.1314 19.5396L0.00195312 19.5396V11.5987C1.04431 11.5988 2.07644 11.8042 3.03946 12.2031C4.00281 12.6021 4.87813 13.187 5.61545 13.9243C6.35277 14.6616 6.93764 15.5369 7.33667 16.5003C7.7357 17.4636 7.94108 18.4961 7.94108 19.5389H11.1843C11.1843 18.0702 10.895 16.616 10.333 15.2592C9.77096 13.9023 8.9472 12.6695 7.90873 11.631ZM0.00195312 8.35027V0.410156L7.94108 0.410157C7.94107 1.45285 7.73569 2.48533 7.33667 3.44865C6.93764 4.412 6.35277 5.28732 5.61545 6.02464C4.87813 6.76195 4.00281 7.34683 3.03946 7.74586C2.07644 8.14475 1.04431 8.35013 0.00195312 8.35027Z" fill="#FE7506"/>
</g>
</g>
</svg>
