<svg width="121" height="28" viewBox="0 0 121 28" fill="none" xmlns="http://www.w3.org/2000/svg">
<path d="M63.0981 21.4457C61.9561 22.8504 60.3743 23.5528 58.3529 23.5528C56.7654 23.5528 55.4292 23.1873 54.3442 22.4564C53.2593 21.7255 52.4484 20.7205 51.9116 19.4414C51.5005 18.4706 51.2949 17.2886 51.2949 15.8953V5H54.2586V15.7411C54.2586 17.2144 54.6412 18.3964 55.4063 19.2872C56.1829 20.178 57.2622 20.6234 58.6441 20.6234C59.6491 20.6234 60.4885 20.3779 61.1623 19.8868C61.8362 19.3957 62.3444 18.739 62.687 17.9167C62.9268 17.3 63.0467 16.5748 63.0467 15.7411V5H66.0275V23.1417H63.2352L63.0981 21.4457Z" fill="#FFF9DC"/>
<path d="M109.195 7.14611C110.337 5.74137 111.919 5.039 113.94 5.039C115.528 5.039 116.864 5.40446 117.949 6.13538C119.034 6.8663 119.845 7.87132 120.381 9.15043C120.792 10.1212 120.998 11.3032 120.998 12.6965V23.5918H118.034V12.8507C118.034 11.3774 117.652 10.1954 116.887 9.3046C116.11 8.4138 115.031 7.96839 113.649 7.96839C112.644 7.96839 111.804 8.21394 111.131 8.70502C110.457 9.19611 109.949 9.85279 109.606 10.6751C109.366 11.2918 109.246 12.017 109.246 12.8507V23.5918H106.265V5.45015H109.058L109.195 7.14611Z" fill="#FFF9DC"/>
<path d="M84.8854 4.95312V23.5844H81.7324V4.95312H84.8854Z" fill="#FFF9DC"/>
<path d="M82.0587 3.31207C82.3908 3.6419 82.802 3.80681 83.2922 3.80681C83.7666 3.80681 84.1699 3.6419 84.502 3.31207C84.8341 2.98224 85.0002 2.57389 85.0002 2.087C85.0002 1.60011 84.8341 1.19175 84.502 0.861928C84.1699 0.532101 83.7666 0.367188 83.2922 0.367188C82.802 0.367188 82.3908 0.532101 82.0587 0.861928C81.7266 1.19175 81.5605 1.60011 81.5605 2.087C81.5605 2.57389 81.7266 2.98224 82.0587 3.31207Z" fill="#FFF9DC"/>
<path d="M103.801 4.95312V23.5844H100.648V4.95312H103.801Z" fill="#FFF9DC"/>
<path d="M100.975 3.31207C101.307 3.6419 101.718 3.80681 102.208 3.80681C102.683 3.80681 103.086 3.6419 103.418 3.31207C103.75 2.98224 103.916 2.57389 103.916 2.087C103.916 1.60011 103.75 1.19175 103.418 0.861928C103.086 0.532101 102.683 0.367188 102.208 0.367188C101.718 0.367188 101.307 0.532101 100.975 0.861928C100.643 1.19175 100.477 1.60011 100.477 2.087C100.477 2.57389 100.643 2.98224 100.975 3.31207Z" fill="#FFF9DC"/>
<path fill-rule="evenodd" clip-rule="evenodd" d="M38.1069 12.6865L38.1069 15.8453L38.1069 15.8503C39.1225 15.8503 40.1281 16.0503 41.0664 16.4389C42.0046 16.8276 42.8572 17.3972 43.5753 18.1153C44.2934 18.8334 44.863 19.686 45.2517 20.6242C45.6403 21.5625 45.8403 22.5681 45.8403 23.5837H48.999C48.9991 22.1533 48.7173 20.7369 48.1699 19.4154C47.6226 18.0939 46.8202 16.8932 45.8088 15.8818C45.189 15.2619 44.498 14.7206 43.7518 14.2684C44.498 13.8162 45.189 13.2749 45.8088 12.655C46.8202 11.6436 47.6226 10.4429 48.1699 9.12136C48.7173 7.79987 48.999 6.3835 48.999 4.95312H45.8403C45.8403 5.96869 45.6403 6.97431 45.2517 7.91257C44.863 8.85084 44.2934 9.70336 43.5753 10.4215C42.8572 11.1396 42.0046 11.7092 41.0664 12.0979C40.1281 12.4865 39.1225 12.6865 38.1069 12.6865ZM38.1061 23.5546L38.1061 4.98064L34.9531 4.98064V23.5546H38.1061Z" fill="#FFF9DC"/>
<path fill-rule="evenodd" clip-rule="evenodd" d="M75.1008 5.78224C76.4223 5.23486 77.8387 4.95312 79.2691 4.95312V8.11184C78.2535 8.11184 77.2479 8.31188 76.3096 8.70052C75.3714 9.08916 74.5189 9.6588 73.8007 10.3769C73.0826 11.095 72.513 11.9475 72.1243 12.8858C71.7357 13.8241 71.5357 14.8297 71.5357 15.8453H71.5306L71.5306 23.5555H68.3776L68.3776 15.8453H68.377C68.377 15.8067 68.3772 15.7681 68.3776 15.7296L68.3776 4.98156L71.5306 4.98156L71.5306 8.18017C71.5427 8.16787 71.5549 8.1556 71.5672 8.14336C72.5786 7.13193 73.7794 6.32962 75.1008 5.78224Z" fill="#FFF9DC"/>
<path fill-rule="evenodd" clip-rule="evenodd" d="M94.0154 5.78224C95.3369 5.23486 96.7533 4.95312 98.1836 4.95312V8.11184C97.1681 8.11184 96.1625 8.31188 95.2242 8.70052C94.2859 9.08916 93.4334 9.6588 92.7153 10.3769C91.9972 11.095 91.4275 11.9475 91.0389 12.8858C90.6503 13.8241 90.4502 14.8297 90.4502 15.8453H90.444L90.444 23.5555H87.291V4.98156L90.444 4.98156L90.444 8.18129C90.4566 8.16862 90.4691 8.15597 90.4817 8.14336C91.4932 7.13193 92.6939 6.32962 94.0154 5.78224Z" fill="#FFF9DC"/>
<mask id="mask0_14339_5656" style="mask-type:alpha" maskUnits="userSpaceOnUse" x="0" y="0" width="27" height="28">
<rect y="0.978516" width="26.5734" height="26.5734" fill="white"/>
</mask>
<g mask="url(#mask0_14339_5656)">
<mask id="mask1_14339_5656" style="mask-type:alpha" maskUnits="userSpaceOnUse" x="4" y="-3" width="30" height="35">
<path d="M14.0668 31.2422H33.0126V-1.6875H14.0668L12.1804 6.55517L7.83355 10.9431L5.41406 14.6338L10.6221 20.0469L14.0668 31.2422Z" fill="#0DAB0C" stroke="black"/>
</mask>
<g mask="url(#mask1_14339_5656)">
<path fill-rule="evenodd" clip-rule="evenodd" d="M10.9864 11.9632C10.102 12.8475 9.11621 13.6198 8.05146 14.2649C9.11621 14.91 10.102 15.6823 10.9864 16.5666C12.4289 18.0092 13.5732 19.7218 14.354 21.6066C15.1347 23.4914 15.5365 25.5115 15.5365 27.5516H11.0313C11.0313 26.1032 10.746 24.6689 10.1917 23.3306C9.63738 21.9924 8.82492 20.7765 7.80069 19.7523C6.77646 18.728 5.56052 17.9156 4.2223 17.3613C2.88408 16.8069 1.44979 16.5216 0.00130739 16.5216L0.00130411 16.5134L0.00130392 12.0081C1.44978 12.0081 2.88408 11.7228 4.2223 11.1685C5.56052 10.6142 6.77646 9.80176 7.80069 8.77753C8.82492 7.7533 9.63738 6.53737 10.1917 5.19915C10.746 3.86104 11.0312 2.42687 11.0313 0.978516L2.32312e-06 0.978516L0 27.5519L26.5734 27.5519L26.5734 0.978518L15.5365 0.978517C15.5365 3.0185 15.1346 5.03851 14.354 6.92322C13.5732 8.80803 12.4289 10.5206 10.9864 11.9632Z" fill="#0DAB0C"/>
</g>
<mask id="mask2_14339_5656" style="mask-type:alpha" maskUnits="userSpaceOnUse" x="-6" y="-3" width="20" height="35">
<path d="M12.6289 -1.72848L-5.41473 -1.72848L-5.41474 31.2012L12.6289 31.2012L12.6289 23.4916L9.43026 18.3246L5.86254 14.2648L12.6289 6.96527L12.6289 -1.72848Z" fill="#D9D9D9" stroke="black"/>
</mask>
<g mask="url(#mask2_14339_5656)">
<path fill-rule="evenodd" clip-rule="evenodd" d="M10.9864 11.922C10.102 12.8064 9.11621 13.5786 8.05145 14.2237C9.11621 14.8688 10.102 15.6411 10.9864 16.5254C12.4289 17.968 13.5732 19.6806 14.354 21.5654C15.1347 23.4502 15.5365 25.4704 15.5365 27.5105H11.0313C11.0313 26.062 10.746 24.6277 10.1917 23.2895C9.63738 21.9512 8.82492 20.7353 7.80069 19.7111C6.77646 18.6869 5.56052 17.8744 4.2223 17.3201C2.88408 16.7658 1.44979 16.4805 0.00130739 16.4805L0.00130411 16.4722L0.00130392 11.967C1.44978 11.967 2.88408 11.6817 4.2223 11.1274C5.56052 10.5731 6.77646 9.76059 7.80069 8.73636C8.82492 7.71213 9.63738 6.49619 10.1917 5.15797C10.7459 3.81991 11.0312 2.3858 11.0313 0.937501L2.32312e-06 0.9375L0 27.5109L26.5734 27.5109L26.5734 0.937502L15.5365 0.937501C15.5364 2.97743 15.1346 4.99738 14.354 6.88204C13.5732 8.76686 12.4289 10.4794 10.9864 11.922Z" fill="#FE7506"/>
</g>
</g>
</svg>
