<svg width="1946" height="406" viewBox="0 0 1946 406" fill="none" xmlns="http://www.w3.org/2000/svg">
<path d="M935.955 367.715C916.033 392.219 888.441 404.471 853.18 404.471C825.488 404.471 802.18 398.096 783.254 385.346C764.328 372.596 750.184 355.064 740.82 332.752C733.648 315.818 730.062 295.199 730.062 270.895V80.8398H781.76V268.205C781.76 293.904 788.434 314.523 801.781 330.062C815.328 345.602 834.154 353.371 858.26 353.371C875.791 353.371 890.434 349.088 902.188 340.521C913.941 331.955 922.807 320.5 928.783 306.156C932.967 295.398 935.059 282.748 935.059 268.205V80.8398H987.055V397.299H938.346L935.955 367.715Z" fill="#FE7506"/>
<path d="M1740.04 118.285C1759.97 93.7812 1787.56 81.5293 1822.82 81.5293C1850.51 81.5293 1873.82 87.9043 1892.75 100.654C1911.67 113.404 1925.82 130.936 1935.18 153.248C1942.35 170.182 1945.94 190.801 1945.94 215.105V405.16H1894.24V217.795C1894.24 192.096 1887.57 171.477 1874.22 155.938C1860.67 140.398 1841.85 132.629 1817.74 132.629C1800.21 132.629 1785.57 136.912 1773.81 145.479C1762.06 154.045 1753.19 165.5 1747.22 179.844C1743.03 190.602 1740.94 203.252 1740.94 217.795V405.16H1688.95V88.7012H1737.65L1740.04 118.285Z" fill="#FE7506"/>
<path d="M1316 80V405H1261V80H1316Z" fill="#FE7506"/>
<path d="M1266.69 51.3699C1272.48 57.1233 1279.66 60 1288.21 60C1296.48 60 1303.52 57.1233 1309.31 51.3699C1315.1 45.6164 1318 38.4932 1318 30C1318 21.5068 1315.1 14.3836 1309.31 8.63014C1303.52 2.87671 1296.48 0 1288.21 0C1279.66 0 1272.48 2.87671 1266.69 8.63014C1260.9 14.3836 1258 21.5068 1258 30C1258 38.4932 1260.9 45.6164 1266.69 51.3699Z" fill="#FE7506"/>
<path d="M1646 80V405H1591V80H1646Z" fill="#FE7506"/>
<path d="M1596.69 51.3699C1602.48 57.1233 1609.66 60 1618.21 60C1626.48 60 1633.52 57.1233 1639.31 51.3699C1645.1 45.6164 1648 38.4932 1648 30C1648 21.5069 1645.1 14.3836 1639.31 8.63014C1633.52 2.87671 1626.48 0 1618.21 0C1609.66 0 1602.48 2.87671 1596.69 8.63014C1590.9 14.3836 1588 21.5069 1588 30C1588 38.4932 1590.9 45.6164 1596.69 51.3699Z" fill="#FE7506"/>
<path fill-rule="evenodd" clip-rule="evenodd" d="M551.624 204.631C535.257 211.411 517.715 214.9 500 214.9L500 80.5L445 80.5L445 404.5H500L500 270.021L500 270.1C517.715 270.1 535.257 273.589 551.624 280.369C567.991 287.148 582.862 297.085 595.389 309.611C607.915 322.138 617.852 337.009 624.631 353.376C631.411 369.743 634.9 387.285 634.9 405H690C690 380.049 685.085 355.342 675.537 332.29C665.989 309.238 651.993 288.293 634.35 270.65C623.535 259.834 611.479 250.39 598.457 242.5C611.479 234.61 623.535 225.166 634.35 214.35C651.993 196.707 665.989 175.762 675.537 152.71C685.085 129.658 690 104.951 690 80H634.9C634.9 97.7153 631.411 115.257 624.631 131.624C617.852 147.991 607.915 162.862 595.389 175.389C582.862 187.915 567.991 197.852 551.624 204.631Z" fill="#FE7506"/>
<path fill-rule="evenodd" clip-rule="evenodd" d="M1145.29 94.4629C1168.34 84.9145 1193.05 80 1218 80V135.1C1200.28 135.1 1182.74 138.589 1166.38 145.369C1150.01 152.148 1135.14 162.085 1122.61 174.611C1110.08 187.138 1100.15 202.009 1093.37 218.376C1086.59 234.743 1083.1 252.285 1083.1 270H1083L1083 404.5H1028L1028 80.4998L1083 80.4998L1083 136.303C1083.22 136.085 1083.43 135.867 1083.65 135.65C1101.29 118.007 1122.24 104.011 1145.29 94.4629Z" fill="#FE7506"/>
<path fill-rule="evenodd" clip-rule="evenodd" d="M1475.29 94.4629C1498.34 84.9145 1523.05 80 1548 80V135.1C1530.28 135.1 1512.74 138.589 1496.38 145.369C1480.01 152.148 1465.14 162.085 1452.61 174.611C1440.08 187.138 1430.15 202.009 1423.37 218.376C1416.59 234.743 1413.1 252.285 1413.1 270H1413L1413 404.5H1358L1358 80.4998L1413 80.4998L1413 136.303C1413.22 136.085 1413.43 135.867 1413.65 135.65C1431.29 118.007 1452.24 104.011 1475.29 94.4629Z" fill="#FE7506"/>
<mask id="mask0_13939_21146" style="mask-type:alpha" maskUnits="userSpaceOnUse" x="0" y="81" width="324" height="324">
<rect y="81" width="324" height="324" fill="white"/>
</mask>
<g mask="url(#mask0_13939_21146)">
<mask id="mask1_13939_21146" style="mask-type:alpha" maskUnits="userSpaceOnUse" x="65" y="48" width="338" height="403">
<path d="M171.5 450H402.5V48.5H171.5L148.5 149L95.5 202.5L66 247.5L129.5 313.5L171.5 450Z" fill="#0DAB0C" stroke="black"/>
</mask>
<g mask="url(#mask1_13939_21146)">
<path fill-rule="evenodd" clip-rule="evenodd" d="M133.938 214.937C123.156 225.719 111.137 235.134 98.1558 242.999C111.137 250.865 123.156 260.28 133.938 271.062C151.527 288.651 165.479 309.532 174.998 332.513C184.517 355.494 189.417 380.125 189.417 404.999H134.486C134.486 387.338 131.008 369.85 124.249 353.534C117.491 337.217 107.584 322.392 95.0964 309.904C82.6083 297.416 67.7828 287.51 51.4663 280.751C35.1499 273.993 17.662 270.514 0.00116685 270.514L0.00113593 270.415L0.00113833 215.485C17.662 215.485 35.1498 212.006 51.4663 205.248C67.7828 198.489 82.6083 188.583 95.0964 176.095C107.584 163.607 117.491 148.782 124.249 132.465C131.008 116.149 134.486 98.6608 134.486 81L2.8325e-05 81L0 405L324 405L324 81L189.417 81C189.417 105.874 184.517 130.505 174.998 153.486C165.479 176.467 151.527 197.348 133.938 214.937Z" fill="#0DAB0C"/>
</g>
<mask id="mask2_13939_21146" style="mask-type:alpha" maskUnits="userSpaceOnUse" x="-67" y="47" width="222" height="403">
<path d="M154 48L-66 48L-66 449.5L154 449.5L154 355.5L115 292.5L71.5 243L154 154L154 48Z" fill="#D9D9D9" stroke="black"/>
</mask>
<g mask="url(#mask2_13939_21146)">
<path fill-rule="evenodd" clip-rule="evenodd" d="M133.934 214.437C123.152 225.219 111.133 234.634 98.1519 242.499C111.133 250.365 123.152 259.78 133.934 270.562C151.523 288.151 165.475 309.032 174.994 332.013C184.513 354.994 189.413 379.625 189.413 404.499H134.482C134.482 386.838 131.004 369.35 124.245 353.034C117.487 336.717 107.581 321.892 95.0925 309.404C82.6044 296.916 67.7789 287.01 51.4624 280.251C35.146 273.493 17.6581 270.014 -0.0027394 270.014L-0.00277032 269.915L-0.00276792 214.985C17.658 214.985 35.1459 211.506 51.4624 204.748C67.7789 197.989 82.6044 188.083 95.0925 175.595C107.581 163.107 117.487 148.282 124.245 131.965C131.004 115.649 134.482 98.1608 134.482 80.5L-0.00387793 80.5L-0.00390625 404.5L323.996 404.5L323.996 80.5L189.413 80.5C189.413 105.374 184.513 130.005 174.994 152.986C165.475 175.967 151.523 196.848 133.934 214.437Z" fill="#FE7506"/>
</g>
</g>
</svg>
