<svg width="447" height="30" viewBox="0 0 447 30" fill="none" xmlns="http://www.w3.org/2000/svg">
<path d="M432 0.5H15C6.99187 0.5 0.5 6.99187 0.5 15C0.5 23.0081 6.99187 29.5 15 29.5H432C440.008 29.5 446.5 23.0081 446.5 15C446.5 6.99187 440.008 0.5 432 0.5Z" stroke="url(#paint0_linear_14339_5226)" stroke-opacity="0.4"/>
<path d="M429.238 1H244.762C241.028 1 238 6.49187 238 14.5C238 22.5081 241.028 29 244.762 29H429.238C432.972 29 446 29 446 14.5C446 2.5 436 1 429.238 1Z" fill="url(#paint1_linear_14339_5226)"/>
<path fill-rule="evenodd" clip-rule="evenodd" d="M0 15C0 23.2843 6.71573 30 15 30H218.302L231.297 15L218.302 0H15C6.71573 0 0 6.71573 0 15ZM15 29H217.846L229.973 15L217.846 1H15C11.134 1 7.83418 2.36685 5.10051 5.10052C2.36684 7.83419 1 11.134 1 15C1 18.866 2.36684 22.1658 5.10051 24.8995C7.83418 27.6332 11.134 29 15 29Z" fill="url(#paint2_linear_14339_5226)"/>
<path d="M54.6021 13.0977C54.6021 13.9097 54.3245 14.584 53.7691 15.1207C53.2138 15.6574 52.3668 15.9257 51.2281 15.9257H49.3521V19.9997H48.0781V10.2417H51.2281C52.3295 10.2417 53.1671 10.5077 53.7411 11.0397C54.3151 11.5717 54.6021 12.2577 54.6021 13.0977ZM51.2281 14.8757C51.9375 14.8757 52.4601 14.7217 52.7961 14.4137C53.1321 14.1057 53.3001 13.667 53.3001 13.0977C53.3001 11.8937 52.6095 11.2917 51.2281 11.2917H49.3521V14.8757H51.2281ZM59.9921 12.1877C60.5708 12.1877 61.0935 12.3114 61.5601 12.5587C62.0268 12.806 62.3931 13.177 62.6591 13.6717C62.9251 14.1664 63.0581 14.7684 63.0581 15.4777V19.9997H61.7981V15.6597C61.7981 14.8944 61.6068 14.3087 61.2241 13.9027C60.8415 13.4967 60.3188 13.2937 59.6561 13.2937C58.9841 13.2937 58.4498 13.5037 58.0531 13.9237C57.6565 14.3437 57.4581 14.955 57.4581 15.7577V19.9997H56.1841V9.63971H57.4581V13.4197C57.7101 13.0277 58.0578 12.7244 58.5011 12.5097C58.9445 12.295 59.4415 12.1877 59.9921 12.1877ZM64.6681 16.1357C64.6681 15.3517 64.8268 14.6634 65.1441 14.0707C65.4615 13.478 65.8978 13.0183 66.4531 12.6917C67.0085 12.365 67.6268 12.2017 68.3081 12.2017C68.9801 12.2017 69.5635 12.3463 70.0581 12.6357C70.5528 12.925 70.9215 13.289 71.1641 13.7277V12.3277H72.4521V19.9997H71.1641V18.5717C70.9121 19.0197 70.5365 19.3907 70.0371 19.6847C69.5378 19.9787 68.9568 20.1257 68.2941 20.1257C67.6128 20.1257 66.9968 19.9577 66.4461 19.6217C65.8955 19.2857 65.4615 18.8144 65.1441 18.2077C64.8268 17.601 64.6681 16.9103 64.6681 16.1357ZM71.1641 16.1497C71.1641 15.571 71.0475 15.067 70.8141 14.6377C70.5808 14.2084 70.2658 13.8794 69.8691 13.6507C69.4725 13.422 69.0361 13.3077 68.5601 13.3077C68.0841 13.3077 67.6501 13.4197 67.2581 13.6437C66.8661 13.8677 66.5535 14.1944 66.3201 14.6237C66.0868 15.053 65.9701 15.557 65.9701 16.1357C65.9701 16.7237 66.0868 17.2347 66.3201 17.6687C66.5535 18.1027 66.8661 18.434 67.2581 18.6627C67.6501 18.8914 68.0841 19.0057 68.5601 19.0057C69.0361 19.0057 69.4725 18.8914 69.8691 18.6627C70.2658 18.434 70.5808 18.1027 70.8141 17.6687C71.0475 17.2347 71.1641 16.7284 71.1641 16.1497ZM77.3035 20.1257C76.7141 20.1257 76.1855 20.0254 75.7176 19.8247C75.25 19.624 74.8804 19.344 74.609 18.9847C74.3378 18.6253 74.2021 18.2124 74.2021 17.7457H75.5041C75.5415 18.1284 75.7211 18.441 76.0431 18.6837C76.3651 18.9264 76.7875 19.0477 77.3101 19.0477C77.7955 19.0477 78.1781 18.9404 78.4581 18.7257C78.7381 18.511 78.8781 18.2404 78.8781 17.9137C78.8781 17.5777 78.7288 17.328 78.4301 17.1647C78.1314 17.0014 77.6695 16.8404 77.0441 16.6817C76.4748 16.5324 76.0105 16.3807 75.6511 16.2267C75.2918 16.0727 74.9838 15.844 74.7271 15.5407C74.4705 15.2373 74.3421 14.8384 74.3421 14.3437C74.3421 13.9517 74.4588 13.5924 74.6921 13.2657C74.9255 12.939 75.2568 12.68 75.6861 12.4887C76.1155 12.2974 76.6055 12.2017 77.1561 12.2017C78.0055 12.2017 78.6915 12.4164 79.2141 12.8457C79.7368 13.275 80.0168 13.863 80.0541 14.6097H78.7521C78.7521 14.2083 78.6045 13.8864 78.3091 13.6437C78.0139 13.401 77.6178 13.2797 77.1209 13.2797C76.6615 13.2797 76.2959 13.3777 76.0239 13.5737C75.7521 13.7697 75.6161 14.0264 75.6161 14.3437C75.6161 14.5957 75.6978 14.8034 75.8611 14.9667C76.0244 15.13 76.2298 15.2607 76.4771 15.3587C76.7245 15.4567 77.0675 15.5663 77.5061 15.6877C78.0568 15.837 78.5048 15.984 78.8501 16.1287C79.1955 16.2734 79.4918 16.4904 79.7391 16.7797C79.9865 17.069 80.1101 17.447 80.1101 17.9137C80.1101 18.3337 79.9931 18.7117 79.7592 19.0477C79.5255 19.3837 79.1958 19.6474 78.77 19.8387C78.3444 20.03 77.8555 20.1257 77.3035 20.1257ZM88.9161 15.8697C88.9161 16.1124 88.9021 16.369 88.8741 16.6397H82.7421C82.7888 17.3957 83.0478 17.986 83.5191 18.4107C83.9905 18.8354 84.5621 19.0477 85.2341 19.0477C85.7848 19.0477 86.2445 18.9194 86.6131 18.6627C86.9818 18.406 87.2408 18.063 87.3901 17.6337H88.7621C88.5568 18.371 88.1461 18.9707 87.5301 19.4327C86.9141 19.8947 86.1488 20.1257 85.2341 20.1257C84.5061 20.1257 83.8551 19.9623 83.2811 19.6357C82.7071 19.309 82.2568 18.8447 81.9301 18.2427C81.6034 17.6407 81.4401 16.943 81.4401 16.1497C81.4401 15.3564 81.5988 14.661 81.9161 14.0637C82.2335 13.4664 82.6791 13.0067 83.2531 12.6847C83.8271 12.3627 84.4874 12.2017 85.2341 12.2017C85.9621 12.2017 86.6061 12.3604 87.1661 12.6777C87.7261 12.995 88.1578 13.4314 88.4611 13.9867C88.7645 14.542 88.9161 15.1697 88.9161 15.8697ZM87.6001 15.6037C87.6001 15.1184 87.4928 14.7007 87.2781 14.3507C87.0635 14.0007 86.7718 13.7347 86.4031 13.5527C86.0345 13.3707 85.6261 13.2797 85.1781 13.2797C84.5341 13.2797 83.9858 13.485 83.5331 13.8957C83.0805 14.3064 82.8215 14.8757 82.7561 15.6037H87.6001ZM90.0501 11.0397V9.87769H92.6821V19.9997H91.3941V11.0397H90.0501ZM98.3381 15.1137C98.3381 14.1617 98.5528 13.3054 98.9821 12.5447C99.4114 11.784 99.9971 11.189 100.739 10.7597C101.481 10.3304 102.305 10.1157 103.21 10.1157C104.274 10.1157 105.203 10.3723 105.996 10.8857C106.789 11.399 107.368 12.127 107.732 13.0697H106.206C105.935 12.4817 105.546 12.029 105.037 11.7117C104.528 11.3944 103.919 11.2357 103.21 11.2357C102.529 11.2357 101.917 11.3944 101.376 11.7117C100.835 12.029 100.41 12.4793 100.102 13.0627C99.7941 13.646 99.6401 14.3297 99.6401 15.1137C99.6401 15.8884 99.7941 16.5674 100.102 17.1507C100.41 17.734 100.835 18.1844 101.376 18.5017C101.917 18.819 102.529 18.9777 103.21 18.9777C103.919 18.9777 104.528 18.8214 105.037 18.5087C105.546 18.196 105.935 17.7457 106.206 17.1577H107.732C107.368 18.091 106.789 18.812 105.996 19.3207C105.203 19.8294 104.274 20.0837 103.21 20.0837C102.305 20.0837 101.481 19.8714 100.739 19.4467C99.9971 19.022 99.4114 18.4317 98.9821 17.6757C98.5528 16.9197 98.3381 16.0657 98.3381 15.1137ZM112.968 20.1257C112.249 20.1257 111.598 19.9623 111.015 19.6357C110.432 19.309 109.974 18.8447 109.643 18.2427C109.312 17.6407 109.146 16.943 109.146 16.1497C109.146 15.3657 109.316 14.6727 109.657 14.0707C109.998 13.4687 110.462 13.0067 111.05 12.6847C111.638 12.3627 112.296 12.2017 113.024 12.2017C113.752 12.2017 114.41 12.3627 114.998 12.6847C115.586 13.0067 116.05 13.4664 116.391 14.0637C116.732 14.661 116.902 15.3564 116.902 16.1497C116.902 16.943 116.727 17.6407 116.377 18.2427C116.027 18.8447 115.553 19.309 114.956 19.6357C114.359 19.9623 113.696 20.1257 112.968 20.1257ZM112.968 19.0057C113.425 19.0057 113.855 18.8984 114.256 18.6837C114.657 18.469 114.982 18.147 115.229 17.7177C115.476 17.2883 115.6 16.7657 115.6 16.1497C115.6 15.5337 115.479 15.011 115.236 14.5817C114.993 14.1524 114.676 13.8327 114.284 13.6227C113.892 13.4127 113.467 13.3077 113.01 13.3077C112.543 13.3077 112.116 13.4127 111.729 13.6227C111.342 13.8327 111.031 14.1524 110.798 14.5817C110.565 15.011 110.448 15.5337 110.448 16.1497C110.448 16.775 110.562 17.3024 110.791 17.7317C111.02 18.161 111.325 18.4807 111.708 18.6907C112.091 18.9007 112.511 19.0057 112.968 19.0057ZM119.856 9.63971V19.9997H118.582V9.63971H119.856ZM123.3 9.63971V19.9997H122.026V9.63971H123.3ZM132.47 15.8697C132.47 16.1124 132.456 16.369 132.428 16.6397H126.296C126.343 17.3957 126.602 17.986 127.073 18.4107C127.544 18.8354 128.116 19.0477 128.788 19.0477C129.339 19.0477 129.798 18.9194 130.167 18.6627C130.536 18.406 130.795 18.063 130.944 17.6337H132.316C132.111 18.371 131.7 18.9707 131.084 19.4327C130.468 19.8947 129.703 20.1257 128.788 20.1257C128.06 20.1257 127.409 19.9623 126.835 19.6357C126.261 19.309 125.811 18.8447 125.484 18.2427C125.157 17.6407 124.994 16.943 124.994 16.1497C124.994 15.3564 125.153 14.661 125.47 14.0637C125.787 13.4664 126.233 13.0067 126.807 12.6847C127.381 12.3627 128.041 12.2017 128.788 12.2017C129.516 12.2017 130.16 12.3604 130.72 12.6777C131.28 12.995 131.712 13.4314 132.015 13.9867C132.318 14.542 132.47 15.1697 132.47 15.8697ZM131.154 15.6037C131.154 15.1184 131.047 14.7007 130.832 14.3507C130.617 14.0007 130.326 13.7347 129.957 13.5527C129.588 13.3707 129.18 13.2797 128.732 13.2797C128.088 13.2797 127.54 13.485 127.087 13.8957C126.634 14.3064 126.375 14.8757 126.31 15.6037H131.154ZM133.674 16.1497C133.674 15.3564 133.833 14.6634 134.15 14.0707C134.467 13.478 134.908 13.0183 135.473 12.6917C136.038 12.365 136.684 12.2017 137.412 12.2017C138.355 12.2017 139.132 12.4304 139.743 12.8877C140.354 13.345 140.758 13.9797 140.954 14.7917H139.582C139.451 14.325 139.197 13.9564 138.819 13.6857C138.441 13.415 137.972 13.2797 137.412 13.2797C136.684 13.2797 136.096 13.5294 135.648 14.0287C135.2 14.528 134.976 15.235 134.976 16.1497C134.976 17.0737 135.2 17.7877 135.648 18.2917C136.096 18.7957 136.684 19.0477 137.412 19.0477C137.972 19.0477 138.439 18.917 138.812 18.6557C139.185 18.3944 139.442 18.021 139.582 17.5357H140.954C140.749 18.3197 140.338 18.9474 139.722 19.4187C139.106 19.89 138.336 20.1257 137.412 20.1257C136.684 20.1257 136.038 19.9623 135.473 19.6357C134.908 19.309 134.467 18.847 134.15 18.2497C133.833 17.6524 133.674 16.9524 133.674 16.1497ZM144.202 13.3777V17.8997C144.202 18.273 144.281 18.5367 144.44 18.6907C144.599 18.8447 144.874 18.9217 145.266 18.9217H146.204V19.9997H145.056C144.347 19.9997 143.815 19.8364 143.46 19.5097C143.105 19.183 142.928 18.6464 142.928 17.8997V13.3777H141.934V12.3277H142.928V10.3957H144.202V12.3277H146.204V13.3777H144.202ZM158.006 13.0977C158.006 13.9097 157.728 14.584 157.173 15.1207C156.618 15.6574 155.771 15.9257 154.632 15.9257H152.756V19.9997H151.482V10.2417H154.632C155.733 10.2417 156.571 10.5077 157.145 11.0397C157.719 11.5717 158.006 12.2577 158.006 13.0977ZM154.632 14.8757C155.341 14.8757 155.864 14.7217 156.2 14.4137C156.536 14.1057 156.704 13.667 156.704 13.0977C156.704 11.8937 156.013 11.2917 154.632 11.2917H152.756V14.8757H154.632ZM162.934 20.1257C162.215 20.1257 161.564 19.9623 160.981 19.6357C160.398 19.309 159.94 18.8447 159.609 18.2427C159.278 17.6407 159.112 16.943 159.112 16.1497C159.112 15.3657 159.282 14.6727 159.623 14.0707C159.964 13.4687 160.428 13.0067 161.016 12.6847C161.604 12.3627 162.262 12.2017 162.99 12.2017C163.718 12.2017 164.376 12.3627 164.964 12.6847C165.552 13.0067 166.016 13.4664 166.357 14.0637C166.698 14.661 166.868 15.3564 166.868 16.1497C166.868 16.943 166.693 17.6407 166.343 18.2427C165.993 18.8447 165.519 19.309 164.922 19.6357C164.325 19.9623 163.662 20.1257 162.934 20.1257ZM162.934 19.0057C163.391 19.0057 163.821 18.8984 164.222 18.6837C164.623 18.469 164.948 18.147 165.195 17.7177C165.442 17.2883 165.566 16.7657 165.566 16.1497C165.566 15.5337 165.445 15.011 165.202 14.5817C164.959 14.1524 164.642 13.8327 164.25 13.6227C163.858 13.4127 163.433 13.3077 162.976 13.3077C162.509 13.3077 162.082 13.4127 161.695 13.6227C161.308 13.8327 160.997 14.1524 160.764 14.5817C160.531 15.011 160.414 15.5337 160.414 16.1497C160.414 16.775 160.528 17.3024 160.757 17.7317C160.986 18.161 161.291 18.4807 161.674 18.6907C162.057 18.9007 162.477 19.0057 162.934 19.0057ZM169.206 11.0817C168.963 11.0817 168.758 10.9977 168.59 10.8297C168.422 10.6617 168.338 10.4564 168.338 10.2137C168.338 9.97102 168.422 9.76569 168.59 9.59769C168.758 9.42969 168.963 9.3457 169.206 9.3457C169.439 9.3457 169.638 9.42969 169.801 9.59769C169.964 9.76569 170.046 9.97102 170.046 10.2137C170.046 10.4564 169.964 10.6617 169.801 10.8297C169.638 10.9977 169.439 11.0817 169.206 11.0817ZM169.822 12.3277V19.9997H168.548V12.3277H169.822ZM175.73 12.1877C176.663 12.1877 177.419 12.47 177.998 13.0347C178.577 13.5994 178.866 14.4137 178.866 15.4777V19.9997H177.606V15.6597C177.606 14.8944 177.415 14.3087 177.032 13.9027C176.649 13.4967 176.127 13.2937 175.464 13.2937C174.792 13.2937 174.258 13.5037 173.861 13.9237C173.464 14.3437 173.266 14.955 173.266 15.7577V19.9997H171.992V12.3277H173.266V13.4197C173.518 13.0277 173.861 12.7244 174.295 12.5097C174.729 12.295 175.207 12.1877 175.73 12.1877ZM182.506 13.3777V17.8997C182.506 18.273 182.585 18.5367 182.744 18.6907C182.903 18.8447 183.178 18.9217 183.57 18.9217H184.508V19.9997H183.36C182.651 19.9997 182.119 19.8364 181.764 19.5097C181.409 19.183 181.232 18.6464 181.232 17.8997V13.3777H180.238V12.3277H181.232V10.3957H182.506V12.3277H184.508V13.3777H182.506ZM188.743 20.1257C188.154 20.1257 187.625 20.0254 187.158 19.8247C186.69 19.624 186.32 19.344 186.049 18.9847C185.778 18.6253 185.642 18.2124 185.642 17.7457H186.944C186.981 18.1284 187.161 18.441 187.483 18.6837C187.805 18.9264 188.227 19.0477 188.75 19.0477C189.235 19.0477 189.618 18.9404 189.898 18.7257C190.178 18.511 190.318 18.2404 190.318 17.9137C190.318 17.5777 190.169 17.328 189.87 17.1647C189.571 17.0014 189.109 16.8404 188.484 16.6817C187.915 16.5324 187.45 16.3807 187.091 16.2267C186.732 16.0727 186.424 15.844 186.167 15.5407C185.91 15.2373 185.782 14.8384 185.782 14.3437C185.782 13.9517 185.899 13.5924 186.132 13.2657C186.365 12.939 186.697 12.68 187.126 12.4887C187.555 12.2974 188.045 12.2017 188.596 12.2017C189.445 12.2017 190.131 12.4164 190.654 12.8457C191.177 13.275 191.457 13.863 191.494 14.6097H190.192C190.192 14.2083 190.044 13.8864 189.749 13.6437C189.454 13.401 189.058 13.2797 188.561 13.2797C188.102 13.2797 187.736 13.3777 187.464 13.5737C187.192 13.7697 187.056 14.0264 187.056 14.3437C187.056 14.5957 187.138 14.8034 187.301 14.9667C187.464 15.13 187.67 15.2607 187.917 15.3587C188.164 15.4567 188.507 15.5663 188.946 15.6877C189.497 15.837 189.945 15.984 190.29 16.1287C190.635 16.2734 190.932 16.4904 191.179 16.7797C191.426 17.069 191.55 17.447 191.55 17.9137C191.55 18.3337 191.433 18.7117 191.199 19.0477C190.965 19.3837 190.635 19.6474 190.21 19.8387C189.784 20.03 189.295 20.1257 188.743 20.1257Z" fill="white" fill-opacity="0.6"/>
<path d="M292.971 13.768C292.971 12.816 293.185 11.9597 293.615 11.199C294.044 10.4383 294.63 9.84333 295.372 9.414C296.114 8.98467 296.937 8.76999 297.843 8.76999C298.907 8.76999 299.835 9.02664 300.629 9.53998C301.422 10.0533 302.001 10.7813 302.365 11.724H300.839C300.568 11.136 300.178 10.6833 299.67 10.366C299.161 10.0487 298.552 9.88998 297.843 9.88998C297.161 9.88998 296.55 10.0487 296.009 10.366C295.467 10.6833 295.043 11.1336 294.735 11.717C294.427 12.3003 294.273 12.984 294.273 13.768C294.273 14.5427 294.427 15.2217 294.735 15.805C295.043 16.3883 295.467 16.8387 296.009 17.156C296.55 17.4733 297.161 17.632 297.843 17.632C298.552 17.632 299.161 17.4757 299.67 17.163C300.178 16.8503 300.568 16.4 300.839 15.812H302.365C302.001 16.7453 301.422 17.4663 300.629 17.975C299.835 18.4837 298.907 18.738 297.843 18.738C296.937 18.738 296.114 18.5256 295.372 18.101C294.63 17.6763 294.044 17.086 293.615 16.33C293.185 15.574 292.971 14.72 292.971 13.768ZM305.529 8.29401V18.654H304.255V8.29401H305.529ZM307.223 14.79C307.223 14.006 307.381 13.3177 307.699 12.725C308.016 12.1323 308.452 11.6726 309.008 11.346C309.563 11.0193 310.181 10.856 310.863 10.856C311.535 10.856 312.118 11.0006 312.613 11.29C313.107 11.5793 313.476 11.9433 313.719 12.382V10.982H315.007V18.654H313.719V17.226C313.467 17.674 313.091 18.045 312.592 18.339C312.092 18.633 311.511 18.78 310.849 18.78C310.167 18.78 309.551 18.612 309.001 18.276C308.45 17.94 308.016 17.4687 307.699 16.862C307.381 16.2553 307.223 15.5646 307.223 14.79ZM313.719 14.804C313.719 14.2253 313.602 13.7213 313.369 13.292C313.135 12.8627 312.82 12.5337 312.424 12.305C312.027 12.0763 311.591 11.962 311.115 11.962C310.639 11.962 310.205 12.074 309.813 12.298C309.421 12.522 309.108 12.8487 308.875 13.278C308.641 13.7073 308.525 14.2113 308.525 14.79C308.525 15.378 308.641 15.889 308.875 16.323C309.108 16.757 309.421 17.0883 309.813 17.317C310.205 17.5457 310.639 17.66 311.115 17.66C311.591 17.66 312.027 17.5457 312.424 17.317C312.82 17.0883 313.135 16.757 313.369 16.323C313.602 15.889 313.719 15.3827 313.719 14.804ZM317.821 9.73599C317.578 9.73599 317.373 9.65198 317.205 9.48398C317.037 9.31598 316.953 9.11065 316.953 8.86798C316.953 8.62531 317.037 8.41998 317.205 8.25198C317.373 8.08398 317.578 8 317.821 8C318.054 8 318.252 8.08398 318.416 8.25198C318.579 8.41998 318.661 8.62531 318.661 8.86798C318.661 9.11065 318.579 9.31598 318.416 9.48398C318.252 9.65198 318.054 9.73599 317.821 9.73599ZM318.437 10.982V18.654H317.163V10.982H318.437ZM329.833 10.842C330.43 10.842 330.962 10.9656 331.429 11.213C331.895 11.4603 332.264 11.8313 332.535 12.326C332.805 12.8207 332.941 13.4227 332.941 14.132V18.654H331.681V14.314C331.681 13.5487 331.492 12.963 331.114 12.557C330.736 12.151 330.225 11.948 329.581 11.948C328.918 11.948 328.391 12.1603 327.999 12.585C327.607 13.0097 327.411 13.6233 327.411 14.426V18.654H326.151V14.314C326.151 13.5487 325.962 12.963 325.584 12.557C325.206 12.151 324.695 11.948 324.051 11.948C323.388 11.948 322.861 12.1603 322.469 12.585C322.077 13.0097 321.881 13.6233 321.881 14.426V18.654H320.607V10.982H321.881V12.088C322.133 11.6866 322.471 11.3787 322.896 11.164C323.32 10.9493 323.789 10.842 324.303 10.842C324.947 10.842 325.516 10.9867 326.011 11.276C326.505 11.5653 326.874 11.99 327.117 12.55C327.331 12.0087 327.686 11.5886 328.181 11.29C328.675 10.9913 329.226 10.842 329.833 10.842ZM344.533 16.484H340.277L339.493 18.654H338.149L341.677 8.952H343.147L346.661 18.654H345.317L344.533 16.484ZM344.169 15.448L342.405 10.52L340.641 15.448H344.169ZM348.859 9.73599C348.616 9.73599 348.411 9.65198 348.243 9.48398C348.075 9.31598 347.991 9.11065 347.991 8.86798C347.991 8.62531 348.075 8.41998 348.243 8.25198C348.411 8.08398 348.616 8 348.859 8C349.092 8 349.29 8.08398 349.454 8.25198C349.617 8.41998 349.699 8.62531 349.699 8.86798C349.699 9.11065 349.617 9.31598 349.454 9.48398C349.29 9.65198 349.092 9.73599 348.859 9.73599ZM349.475 10.982V18.654H348.201V10.982H349.475ZM352.919 12.228C353.143 11.7893 353.462 11.4487 353.878 11.206C354.293 10.9633 354.799 10.842 355.397 10.842V12.158H355.061C353.633 12.158 352.919 12.9327 352.919 14.482V18.654H351.645V10.982H352.919V12.228ZM356.391 14.79C356.391 14.006 356.549 13.3177 356.867 12.725C357.184 12.1323 357.62 11.6726 358.176 11.346C358.731 11.0193 359.354 10.856 360.045 10.856C360.642 10.856 361.197 10.9936 361.711 11.269C362.224 11.5443 362.616 11.906 362.887 12.354V8.29401H364.175V18.654H362.887V17.212C362.635 17.6693 362.261 18.045 361.767 18.339C361.272 18.633 360.693 18.78 360.031 18.78C359.349 18.78 358.731 18.612 358.176 18.276C357.62 17.94 357.184 17.4687 356.867 16.862C356.549 16.2553 356.391 15.5646 356.391 14.79ZM362.887 14.804C362.887 14.2253 362.77 13.7213 362.537 13.292C362.303 12.8627 361.988 12.5337 361.592 12.305C361.195 12.0763 360.759 11.962 360.283 11.962C359.807 11.962 359.373 12.074 358.981 12.298C358.589 12.522 358.276 12.8487 358.043 13.278C357.809 13.7073 357.693 14.2113 357.693 14.79C357.693 15.378 357.809 15.889 358.043 16.323C358.276 16.757 358.589 17.0883 358.981 17.317C359.373 17.5457 359.807 17.66 360.283 17.66C360.759 17.66 361.195 17.5457 361.592 17.317C361.988 17.0883 362.303 16.757 362.537 16.323C362.77 15.889 362.887 15.3827 362.887 14.804ZM367.605 12.228C367.829 11.7893 368.148 11.4487 368.564 11.206C368.979 10.9633 369.485 10.842 370.083 10.842V12.158H369.747C368.319 12.158 367.605 12.9327 367.605 14.482V18.654H366.331V10.982H367.605V12.228ZM374.899 18.78C374.18 18.78 373.529 18.6166 372.946 18.29C372.362 17.9633 371.905 17.499 371.574 16.897C371.242 16.295 371.077 15.5973 371.077 14.804C371.077 14.02 371.247 13.327 371.588 12.725C371.928 12.123 372.393 11.661 372.981 11.339C373.569 11.017 374.227 10.856 374.955 10.856C375.683 10.856 376.341 11.017 376.929 11.339C377.517 11.661 377.981 12.1207 378.322 12.718C378.662 13.3153 378.833 14.0107 378.833 14.804C378.833 15.5973 378.658 16.295 378.308 16.897C377.958 17.499 377.484 17.9633 376.887 18.29C376.289 18.6166 375.627 18.78 374.899 18.78ZM374.899 17.66C375.356 17.66 375.785 17.5526 376.187 17.338C376.588 17.1233 376.912 16.8013 377.16 16.372C377.407 15.9426 377.531 15.42 377.531 14.804C377.531 14.188 377.409 13.6653 377.167 13.236C376.924 12.8067 376.607 12.487 376.215 12.277C375.823 12.067 375.398 11.962 374.941 11.962C374.474 11.962 374.047 12.067 373.66 12.277C373.272 12.487 372.962 12.8067 372.729 13.236C372.495 13.6653 372.379 14.188 372.379 14.804C372.379 15.4293 372.493 15.9567 372.722 16.386C372.95 16.8153 373.256 17.135 373.639 17.345C374.021 17.555 374.441 17.66 374.899 17.66ZM381.787 12.396C382.039 11.9573 382.414 11.591 382.914 11.297C383.413 11.003 383.994 10.856 384.657 10.856C385.338 10.856 385.956 11.0193 386.512 11.346C387.067 11.6726 387.503 12.1323 387.821 12.725C388.138 13.3177 388.297 14.006 388.297 14.79C388.297 15.5646 388.138 16.2553 387.821 16.862C387.503 17.4687 387.067 17.94 386.512 18.276C385.956 18.612 385.338 18.78 384.657 18.78C384.003 18.78 383.427 18.633 382.928 18.339C382.428 18.045 382.048 17.6787 381.787 17.24V22.294H380.513V10.982H381.787V12.396ZM386.995 14.79C386.995 14.2113 386.878 13.7073 386.645 13.278C386.411 12.8487 386.096 12.522 385.7 12.298C385.303 12.074 384.867 11.962 384.391 11.962C383.924 11.962 383.492 12.0763 383.096 12.305C382.699 12.5337 382.382 12.865 382.144 13.299C381.906 13.733 381.787 14.2347 381.787 14.804C381.787 15.3827 381.906 15.889 382.144 16.323C382.382 16.757 382.699 17.0883 383.096 17.317C383.492 17.5457 383.924 17.66 384.391 17.66C384.867 17.66 385.303 17.5457 385.7 17.317C386.096 17.0883 386.411 16.757 386.645 16.323C386.878 15.889 386.995 15.378 386.995 14.79ZM392.672 18.78C392.083 18.78 391.554 18.6797 391.086 18.479C390.619 18.2783 390.249 17.9983 389.978 17.639C389.706 17.2796 389.571 16.8667 389.571 16.4H390.873C390.91 16.7827 391.09 17.0953 391.412 17.338C391.734 17.5806 392.156 17.702 392.679 17.702C393.164 17.702 393.547 17.5947 393.827 17.38C394.107 17.1653 394.247 16.8947 394.247 16.568C394.247 16.232 394.097 15.9823 393.799 15.819C393.5 15.6557 393.038 15.4947 392.413 15.336C391.843 15.1867 391.379 15.035 391.02 14.881C390.66 14.727 390.352 14.4983 390.096 14.195C389.839 13.8916 389.711 13.4927 389.711 12.998C389.711 12.606 389.827 12.2466 390.061 11.92C390.294 11.5933 390.625 11.3343 391.055 11.143C391.484 10.9517 391.974 10.856 392.525 10.856C393.374 10.856 394.06 11.0707 394.583 11.5C395.105 11.9293 395.385 12.5173 395.423 13.264H394.121C394.121 12.8626 393.973 12.5407 393.678 12.298C393.382 12.0553 392.986 11.934 392.49 11.934C392.03 11.934 391.664 12.032 391.393 12.228C391.121 12.424 390.985 12.6807 390.985 12.998C390.985 13.25 391.066 13.4577 391.23 13.621C391.393 13.7843 391.598 13.915 391.846 14.013C392.093 14.111 392.436 14.2206 392.875 14.342C393.425 14.4913 393.873 14.6383 394.219 14.783C394.564 14.9277 394.86 15.1447 395.108 15.434C395.355 15.7233 395.479 16.1013 395.479 16.568C395.479 16.988 395.362 17.366 395.128 17.702C394.894 18.038 394.564 18.3016 394.139 18.493C393.713 18.6843 393.224 18.78 392.672 18.78Z" fill="#00FF1A"/>
<mask id="mask0_14339_5226" style="mask-type:luminance" maskUnits="userSpaceOnUse" x="266" y="7" width="17" height="17">
<path d="M283 7H266V24H283V7Z" fill="white"/>
</mask>
<g mask="url(#mask0_14339_5226)">
<path d="M276.007 15.0316C276.298 13.884 275.257 12.8427 274.109 13.1333C273.564 13.2678 273.117 13.7141 272.983 14.2595C272.692 15.4071 273.734 16.4484 274.881 16.1578C275.434 16.0233 275.88 15.577 276.007 15.0316Z" fill="#00FF1A"/>
<path d="M270.264 19.7281C270.136 19.7281 270.002 19.6786 269.903 19.5865C268.528 18.3096 267.745 16.5187 267.742 14.6423C267.742 10.9164 270.774 7.88477 274.5 7.88477C278.225 7.88477 281.257 10.9164 281.257 14.6423C281.257 16.5264 280.499 18.269 279.125 19.5652C278.913 19.7635 278.573 19.7565 278.374 19.544C278.176 19.3315 278.183 18.9915 278.395 18.7931C279.548 17.7241 280.201 16.2214 280.195 14.6494C280.195 11.5114 277.638 8.95435 274.5 8.95435C271.362 8.95435 268.805 11.5114 268.805 14.6494C268.805 16.2502 269.449 17.7235 270.625 18.8144C270.838 19.0127 270.852 19.3527 270.653 19.5652C270.55 19.669 270.41 19.7276 270.264 19.7281Z" fill="#00FF1A"/>
<path d="M277.332 17.836C277.121 17.8358 276.93 17.7099 276.847 17.5158C276.764 17.3216 276.804 17.0966 276.95 16.9435C277.538 16.3202 277.863 15.4985 277.863 14.6485C277.863 12.7927 276.355 11.291 274.506 11.291C272.653 11.2949 271.152 12.7958 271.148 14.6485C271.148 15.5056 271.474 16.3202 272.062 16.9435C272.261 17.156 272.253 17.496 272.041 17.6944C271.828 17.8998 271.488 17.8856 271.29 17.6731C270.518 16.8553 270.087 15.7733 270.086 14.6485C270.086 12.2118 272.069 10.2285 274.506 10.2285C276.943 10.2285 278.926 12.2118 278.926 14.6485C278.926 15.7748 278.501 16.8514 277.722 17.6731C277.619 17.7768 277.478 17.8354 277.332 17.836ZM273.295 18.7993L272.275 20.0673C271.467 21.0802 272.19 22.5818 273.479 22.5818H275.512C276.808 22.5818 277.531 21.0802 276.716 20.0743L275.696 18.8064C275.086 18.0291 273.91 18.0256 273.295 18.7993Z" fill="#00FF1A"/>
</g>
<mask id="mask1_14339_5226" style="mask-type:luminance" maskUnits="userSpaceOnUse" x="16" y="5" width="19" height="19">
<path d="M34.5 5.5H16.5V23.5H34.5V5.5Z" fill="white"/>
</mask>
<g mask="url(#mask1_14339_5226)">
<path d="M26.1443 18.7231H26.1294C25.1416 18.6833 24.1953 18.5654 23.3935 18.3828C23.2108 18.3413 23.0979 18.1603 23.1394 17.9777C23.1809 17.7951 23.3636 17.6805 23.5445 17.7237C24.3065 17.898 25.2097 18.0093 26.1576 18.0474C26.3436 18.0557 26.4896 18.2118 26.4813 18.3994C26.4747 18.5804 26.3253 18.7231 26.1443 18.7231ZM27.896 18.9223C27.7167 18.9223 27.5686 18.7829 27.5586 18.6036C27.547 18.4177 27.6898 18.2566 27.8774 18.2467C30.7362 18.079 32.2588 17.2937 32.2588 16.7923C32.2588 16.6064 32.4098 16.4537 32.5974 16.4537C32.7833 16.4537 32.936 16.6047 32.936 16.7923C32.936 18.0607 30.4158 18.7763 27.919 18.9223H27.896ZM26.8349 17.3518C26.0962 17.3518 25.3707 17.3087 24.6784 17.2223C24.4925 17.1991 24.3613 17.0298 24.3846 16.8455C24.4078 16.6595 24.5755 16.5267 24.7614 16.5517C26.2456 16.7359 27.9224 16.7143 29.3318 16.4935C29.5145 16.4686 29.6888 16.5915 29.7186 16.7757C29.7485 16.96 29.6207 17.1327 29.4364 17.1626C28.6246 17.2871 27.7497 17.3518 26.8349 17.3518ZM29.4985 17.1626C29.3541 17.1626 29.545 16.9584 29.4985 16.814C29.4711 16.7243 29.3941 16.5999 29.4985 16.5013C29.603 16.4027 29.4985 16.5013 30.7795 16.1665C31.8702 15.8262 32.257 15.4277 32.257 15.1903C32.257 14.6142 30.22 13.746 27.0275 13.6962C26.8416 13.6928 26.6922 13.5385 26.6955 13.3525C26.6988 13.1666 26.8549 13.0056 27.0391 13.0205C29.9693 13.067 32.9344 13.8273 32.9344 15.192C32.9344 15.6535 32.5957 16.3109 30.982 16.814C30.9488 16.8223 29.5317 17.1626 29.4985 17.1626Z" fill="white" fill-opacity="0.4"/>
<path fill-rule="evenodd" clip-rule="evenodd" d="M29.3012 16.65C27.8194 16.8768 26.2997 16.8935 24.7421 16.7001C24.6911 16.6933 24.6455 16.7057 24.6051 16.7374C24.5642 16.7694 24.5405 16.8116 24.5339 16.8641C24.5275 16.9152 24.5402 16.9611 24.572 17.002C24.6039 17.0431 24.6458 17.0668 24.6975 17.0733C25.3836 17.1589 26.0963 17.2017 26.8355 17.2017C27.701 17.2017 28.5257 17.1444 29.3096 17.0298C29.3146 17.0119 29.3208 16.9925 29.3282 16.9715C29.3506 16.9083 29.3597 16.8703 29.3556 16.8576C29.3534 16.8502 29.3485 16.8365 29.341 16.8166C29.3183 16.7566 29.3051 16.7011 29.3012 16.65ZM29.4608 17.3105L29.4597 17.3107C28.6295 17.438 27.7548 17.5017 26.8355 17.5017C26.0839 17.5017 25.3589 17.4581 24.6604 17.371C24.5264 17.3543 24.418 17.2927 24.3352 17.1863C24.2524 17.0799 24.2195 16.96 24.2363 16.8265C24.2531 16.6925 24.3143 16.5841 24.42 16.5013C24.5268 16.4176 24.6474 16.3848 24.7819 16.4028C26.3288 16.5949 27.8379 16.5756 29.3092 16.3452C29.3615 16.338 29.4119 16.3382 29.4603 16.3459C29.5135 16.316 29.583 16.2925 29.6688 16.2753C29.9594 16.2169 30.316 16.1325 30.7387 16.0221C31.222 15.871 31.5887 15.7033 31.8388 15.5189C32.018 15.3868 32.1076 15.2772 32.1076 15.1901C32.1076 15.0965 32.0068 14.9814 31.8053 14.8448C31.564 14.6813 31.2267 14.5292 30.7936 14.3884C29.752 14.0497 28.4959 13.8689 27.0254 13.846C26.8911 13.8436 26.777 13.7939 26.6833 13.6969C26.5894 13.5998 26.5437 13.4841 26.5461 13.3497C26.5485 13.2147 26.598 13.0996 26.6947 13.0042C26.7947 12.9055 26.912 12.8609 27.0466 12.8704C28.6418 12.896 30.0041 13.0957 31.1333 13.4693C32.4344 13.8999 33.0849 14.474 33.0849 15.1918C33.0849 15.941 32.399 16.5294 31.0272 16.957L31.0231 16.9583L31.019 16.9593C30.0773 17.1947 29.5707 17.3124 29.4991 17.3124C29.4857 17.3124 29.4729 17.3118 29.4608 17.3105ZM29.8634 16.9341C30.1045 16.877 30.4641 16.7888 30.942 16.6693C32.1706 16.2857 32.7849 15.7932 32.7849 15.1918C32.7849 14.6185 32.203 14.1393 31.039 13.7542C29.9378 13.3898 28.6039 13.1951 27.0373 13.1703L27.0325 13.1702L27.0276 13.1698C26.9822 13.1662 26.9415 13.1821 26.9054 13.2178C26.8668 13.2559 26.847 13.3016 26.846 13.355C26.8451 13.4065 26.8628 13.451 26.899 13.4884C26.9352 13.5259 26.9791 13.5451 27.0308 13.546C28.5309 13.5694 29.8161 13.7551 30.8864 14.1031C31.9005 14.4328 32.4076 14.7951 32.4076 15.1901C32.4076 15.6071 31.88 15.9803 30.8247 16.3095L30.8214 16.3106L30.818 16.3114C30.4183 16.4159 30.0761 16.4976 29.7913 16.5565C29.8301 16.6133 29.8554 16.6784 29.8673 16.7516C29.8776 16.8151 29.8763 16.876 29.8634 16.9341ZM27.8966 19.0722H27.9239L27.9283 19.0719C29.3152 18.9908 30.4782 18.7729 31.4174 18.4184C32.5302 17.9982 33.0866 17.4562 33.0866 16.7922C33.0866 16.657 33.0387 16.5418 32.9429 16.4463C32.8474 16.3511 32.7324 16.3035 32.5979 16.3035C32.4628 16.3035 32.3475 16.3514 32.252 16.4472C32.1569 16.5427 32.1093 16.6577 32.1093 16.7922C32.1093 17.0085 31.7687 17.2458 31.0875 17.5042C30.2481 17.8226 29.1757 18.0201 27.8701 18.0967C27.7348 18.1039 27.622 18.158 27.5319 18.2592C27.4418 18.3602 27.401 18.4777 27.4094 18.6118C27.4166 18.7412 27.4672 18.8503 27.5614 18.9391C27.6554 19.0278 27.7671 19.0722 27.8966 19.0722ZM27.9151 18.7722C29.2696 18.6926 30.4017 18.4811 31.3114 18.1377C32.2949 17.7664 32.7866 17.3179 32.7866 16.7922C32.7866 16.7401 32.7681 16.6956 32.7311 16.6588C32.6942 16.6219 32.6498 16.6035 32.5979 16.6035C32.4722 16.6035 32.4094 16.6664 32.4094 16.7922C32.4094 17.1465 32.0042 17.4774 31.1939 17.7847C30.3259 18.114 29.2233 18.3178 27.886 18.3963C27.8339 18.399 27.7905 18.4199 27.7558 18.4588C27.7213 18.4975 27.7057 18.543 27.7089 18.5951C27.7155 18.7132 27.778 18.7722 27.8966 18.7722H27.9151ZM26.6318 18.4059L26.6318 18.4047C26.6375 18.27 26.5946 18.1532 26.503 18.0542C26.4119 17.9557 26.299 17.9034 26.1642 17.8974C25.2042 17.8587 24.3427 17.7521 23.5799 17.5776C23.4486 17.5463 23.3255 17.5667 23.2106 17.6388C23.096 17.7107 23.0237 17.8125 22.9937 17.9443C22.9638 18.0759 22.9845 18.1987 23.0558 18.3126C23.1273 18.4269 23.229 18.4989 23.3607 18.5289C24.1878 18.7172 25.1088 18.8319 26.1239 18.8728L26.1269 18.873H26.1449C26.2757 18.873 26.3882 18.8277 26.4826 18.7372C26.577 18.6467 26.6267 18.5362 26.6318 18.4059ZM26.1521 18.1972C26.2776 18.2028 26.3376 18.2679 26.332 18.3926L26.332 18.3937C26.3276 18.5132 26.2652 18.5729 26.1449 18.5729H26.133C25.1375 18.5326 24.2356 18.4205 23.4273 18.2364C23.3667 18.2226 23.3247 18.1971 23.3011 18.1599C23.2772 18.1222 23.2722 18.0725 23.2863 18.0108C23.2978 17.96 23.3257 17.9207 23.3699 17.893C23.4138 17.8654 23.4606 17.8576 23.5103 17.8695C24.293 18.0485 25.1736 18.1577 26.1521 18.1972Z" fill="white" fill-opacity="0.4"/>
<path d="M20.178 20.5664C19.9506 20.5664 19.7447 20.5034 19.5737 20.3539C19.4326 20.2311 19.4177 20.0186 19.5388 19.8775C19.6617 19.7364 19.8742 19.7214 20.0153 19.8426C20.2012 20.0036 21.0048 19.8028 22.3761 18.5892C23.1762 17.8853 24.0163 16.9739 24.8065 15.9546C27.0909 13.0011 27.8994 10.5574 27.4528 10.1722C27.3117 10.051 27.2951 9.83687 27.4163 9.69576C27.5391 9.55465 27.7516 9.53804 27.8928 9.65923C28.9304 10.5524 27.3947 13.71 25.3394 16.3679C24.5226 17.4221 23.6527 18.3651 22.821 19.0955C22.1403 19.7015 21.0164 20.5664 20.178 20.5664Z" fill="white" fill-opacity="0.4"/>
<path fill-rule="evenodd" clip-rule="evenodd" d="M22.9197 19.2081L22.9205 19.2074C23.7726 18.459 24.6184 17.543 25.4579 16.4595C26.5752 15.0145 27.394 13.6644 27.9143 12.409C28.5108 10.9697 28.5361 10.0151 27.9903 9.54525C27.8883 9.45766 27.7702 9.41902 27.6359 9.42937C27.5023 9.43968 27.3911 9.49583 27.3023 9.59783C27.2147 9.69983 27.1761 9.81816 27.1864 9.95278C27.1968 10.0872 27.2528 10.1982 27.3546 10.2856C27.4267 10.3478 27.4419 10.5195 27.4004 10.8007C27.3511 11.1344 27.2227 11.5481 27.0153 12.042C26.5182 13.2254 25.7424 14.4989 24.6878 15.8624C23.8865 16.896 23.0827 17.7674 22.2764 18.4767C21.6678 19.0153 21.1385 19.388 20.6883 19.5949C20.3704 19.741 20.1786 19.7856 20.1128 19.7286C20.0109 19.6412 19.8931 19.6023 19.7592 19.6119C19.6252 19.6216 19.5137 19.6775 19.4248 19.7795C19.3373 19.8815 19.2984 19.9994 19.3081 20.1332C19.3178 20.2672 19.3733 20.3784 19.4748 20.4667C19.6652 20.6331 19.8995 20.7162 20.1778 20.7162C20.8762 20.7162 21.7902 20.2135 22.9197 19.2081ZM25.2206 16.276C24.3926 17.3445 23.5597 18.2468 22.7218 18.9827L22.721 18.9833C21.648 19.9386 20.8002 20.4162 20.1778 20.4162C19.9746 20.4162 19.8061 20.3578 19.6722 20.2408C19.5776 20.1584 19.571 20.0698 19.6524 19.975C19.7342 19.8811 19.8225 19.8748 19.9174 19.9562C20.0799 20.097 20.3786 20.0674 20.8136 19.8675C21.2906 19.6483 21.8445 19.2595 22.4753 18.7013C23.2954 17.9799 24.1119 17.0949 24.9249 16.0463C25.9957 14.6618 26.7847 13.3658 27.2919 12.1582C27.7693 11.0214 27.8555 10.3215 27.5506 10.0584C27.5027 10.0173 27.4771 9.97459 27.4739 9.9302C27.4706 9.88618 27.4893 9.84055 27.5299 9.7933C27.6122 9.6987 27.7005 9.69189 27.7948 9.77285C28.2308 10.1481 28.1782 10.9886 27.6371 12.2942C27.1271 13.5249 26.3216 14.8521 25.2206 16.276Z" fill="white" fill-opacity="0.4"/>
<path d="M19.0138 19.5505C18.71 19.5505 18.5124 19.4393 18.3962 19.338C17.357 18.4432 18.8943 15.2872 20.9495 12.6326C22.8023 10.242 24.8194 8.55692 25.9682 8.44237C26.345 8.40418 26.5824 8.53369 26.7169 8.64824C27.21 9.07158 27.1701 9.98466 26.5924 11.3626C26.521 11.5353 26.3235 11.6166 26.1508 11.5436C25.9798 11.4722 25.8968 11.2729 25.9699 11.1019C26.5077 9.81864 26.4065 9.27247 26.277 9.16124C26.2288 9.11807 26.1475 9.10477 26.0363 9.11473C25.2245 9.19608 23.4016 10.5724 21.4841 13.0477C19.1981 15.9978 18.3896 18.4415 18.8362 18.8267C18.8843 18.8682 18.9657 18.8831 19.0769 18.8715C19.8887 18.7902 21.7132 17.4122 23.6257 14.9386C24.1337 14.2845 24.5936 13.6187 24.9953 12.9613C25.0933 12.8003 25.3008 12.7522 25.4602 12.8484C25.6196 12.9464 25.671 13.1539 25.5731 13.3133C25.158 13.9923 24.6832 14.6796 24.1603 15.3536C22.3125 17.7426 20.2971 19.4277 19.1466 19.5439C19.1001 19.5489 19.057 19.5505 19.0138 19.5505Z" fill="white" fill-opacity="0.4"/>
<path fill-rule="evenodd" clip-rule="evenodd" d="M19.1559 19.6441C19.7513 19.5837 20.5182 19.1618 21.4554 18.3784C22.3824 17.6036 23.3102 16.6159 24.2386 15.4156C24.7613 14.7418 25.2343 14.0588 25.6576 13.3663C25.721 13.2631 25.7383 13.1526 25.7095 13.0348C25.6809 12.9176 25.6148 12.8272 25.5112 12.7635C25.4078 12.7011 25.2976 12.6838 25.1807 12.7118C25.0629 12.7401 24.9724 12.8061 24.9093 12.9099C24.5027 13.5752 24.0482 14.2313 23.5459 14.8781C22.6457 16.0424 21.755 16.9917 20.8738 17.726C20.0867 18.3819 19.484 18.7308 19.0658 18.7728C18.9822 18.7815 18.9272 18.7745 18.9007 18.7517C18.8148 18.6775 18.794 18.4908 18.8382 18.1914C18.8882 17.8536 19.0177 17.436 19.2269 16.9385C19.7259 15.7512 20.5045 14.4749 21.5624 13.1096C22.4651 11.9443 23.357 10.9948 24.2381 10.261C25.0252 9.6055 25.6273 9.25685 26.0445 9.21504C26.1301 9.20737 26.1856 9.21495 26.2111 9.23778C26.2728 9.2908 26.2936 9.43973 26.2733 9.68452C26.2435 10.0449 26.1114 10.5045 25.8772 11.0634C25.8297 11.1744 25.8292 11.2862 25.8756 11.3989C25.9218 11.5109 26.0003 11.5901 26.1111 11.6364C26.223 11.6837 26.3349 11.6844 26.4468 11.6384C26.5587 11.5925 26.6377 11.5137 26.6839 11.402C27.2825 9.97423 27.3149 9.03119 26.781 8.57283C26.5623 8.38654 26.2878 8.31012 25.9575 8.34358C25.3629 8.40288 24.5964 8.82433 23.658 9.60793C22.7302 10.3827 21.8008 11.3707 20.8697 12.5721C19.7547 14.0122 18.9379 15.3574 18.4193 16.6076C17.8318 18.024 17.8019 18.9595 18.3298 19.4141C18.5112 19.5721 18.739 19.6512 19.0131 19.6512C19.0636 19.6512 19.1113 19.6488 19.1559 19.6441ZM21.3271 18.225C20.4211 18.9823 19.6906 19.389 19.1358 19.4451C19.0981 19.4491 19.0567 19.4512 19.0131 19.4512C18.7889 19.4512 18.6049 19.3885 18.4612 19.2633C18.0059 18.8712 18.0535 18.0115 18.6041 16.6842C19.1159 15.4505 19.9238 14.1206 21.0279 12.6945C21.9501 11.5046 22.8695 10.5269 23.7862 9.76143C24.6931 9.00409 25.4235 8.59782 25.9774 8.54259C26.2513 8.51483 26.476 8.57568 26.6514 8.72508C27.1112 9.11989 27.0606 9.98639 26.4995 11.3246C26.4742 11.3857 26.4314 11.4286 26.3709 11.4534C26.3104 11.4783 26.2497 11.4778 26.1891 11.4522C26.1285 11.4269 26.0857 11.3838 26.0606 11.3227C26.0355 11.2618 26.0356 11.2015 26.0611 11.1419C26.3039 10.5627 26.4411 10.0824 26.4726 9.701C26.4985 9.3884 26.4548 9.18344 26.3414 9.08607C26.2749 9.02642 26.17 9.00302 26.0266 9.01585C25.5674 9.06186 24.9286 9.4257 24.1101 10.1073C23.2179 10.8504 22.3159 11.8103 21.4043 12.9871C20.3356 14.3662 19.5484 15.6576 19.0425 16.861C18.5742 17.9751 18.4834 18.6558 18.7701 18.9031C18.8402 18.9635 18.9457 18.9864 19.0866 18.9717C19.5449 18.9257 20.1833 18.5617 21.0018 17.8797C21.8942 17.136 22.795 16.1763 23.7041 15.0004C24.2108 14.348 24.6695 13.6859 25.0799 13.0142C25.1622 12.8789 25.2715 12.8524 25.4078 12.9347C25.5434 13.0181 25.5699 13.127 25.4872 13.2616C25.0676 13.948 24.5988 14.6251 24.0806 15.293C23.1609 16.4821 22.2431 17.4594 21.3271 18.225Z" fill="white" fill-opacity="0.4"/>
<path d="M19.8669 20.4855C19.7889 20.4855 19.7108 20.4589 19.6478 20.4041L18.4375 19.3699C18.2947 19.2487 18.2781 19.0362 18.3993 18.8934C18.5222 18.7506 18.7347 18.734 18.8758 18.8552L20.086 19.8895C20.2288 20.0107 20.2454 20.2232 20.1242 20.3659C20.0562 20.444 19.9615 20.4855 19.8669 20.4855ZM27.7659 10.3021C27.6879 10.3021 27.6099 10.2755 27.5468 10.2207L26.3399 9.18646C26.1971 9.06527 26.1821 8.8511 26.3033 8.70999C26.4262 8.56722 26.6387 8.55227 26.7798 8.67346L27.9867 9.70773C28.1295 9.82892 28.1444 10.0431 28.0232 10.1842C27.9552 10.2622 27.8606 10.3021 27.7659 10.3021ZM32.592 19.0162C32.4061 19.0162 32.2534 18.8652 32.2534 18.6776L32.25 15.2925C32.25 15.1066 32.4011 14.9538 32.5887 14.9538C32.7747 14.9538 32.9274 15.1049 32.9274 15.2925L32.9307 18.6776C32.9307 18.8635 32.7796 19.0162 32.592 19.0162Z" fill="white" fill-opacity="0.4"/>
<path d="M26.8406 21.5666C24.9198 21.5666 22.1051 21.2661 20.9845 20.7631C20.8135 20.6867 20.7387 20.4858 20.815 20.3165C20.8914 20.1455 21.0908 20.0675 21.2618 20.1472C22.2978 20.612 25.0094 20.8909 26.8406 20.8909C30.1509 20.8909 32.2627 20.011 32.2627 19.4051C32.2627 19.2192 32.4137 19.0664 32.6013 19.0664C32.7873 19.0664 32.94 19.2175 32.94 19.4051C32.9384 20.8245 29.8703 21.5666 26.8406 21.5666Z" fill="white" fill-opacity="0.4"/>
<path fill-rule="evenodd" clip-rule="evenodd" d="M31.0702 21.1607C32.4152 20.7347 33.0882 20.1494 33.0891 19.4048C33.0891 19.2697 33.0412 19.1542 32.9454 19.0587C32.8499 18.9636 32.7349 18.916 32.6004 18.916C32.4652 18.916 32.3499 18.9639 32.2545 19.0597C32.1593 19.1552 32.1118 19.2702 32.1118 19.4047C32.1118 19.5057 32.0067 19.6268 31.7965 19.7679C31.5461 19.9361 31.1964 20.0907 30.7471 20.2317C29.6669 20.5709 28.3644 20.7405 26.8397 20.7405C25.8551 20.7405 24.8321 20.6751 23.7704 20.5441C22.6141 20.4015 21.7987 20.2237 21.3243 20.0108C21.2007 19.9532 21.0754 19.9487 20.9484 19.9973C20.8228 20.0454 20.7325 20.1311 20.6774 20.2544C20.6221 20.377 20.6182 20.5013 20.6658 20.6272C20.7135 20.7537 20.799 20.8445 20.9222 20.8995C21.466 21.1437 22.3562 21.3445 23.5926 21.5019C24.7148 21.6448 25.7971 21.7162 26.8397 21.7162C28.4908 21.7162 29.901 21.5311 31.0702 21.1607ZM32.7891 19.4045C32.7883 20.0027 32.1851 20.4929 30.9797 20.8747C29.8399 21.2357 28.4599 21.4162 26.8397 21.4162C25.8098 21.4162 24.7401 21.3456 23.6305 21.2043C22.4236 21.0506 21.5617 20.8578 21.045 20.6259C20.9976 20.6047 20.9647 20.5698 20.9464 20.5213C20.9281 20.4728 20.9296 20.4249 20.9509 20.3778C20.9725 20.3294 21.0074 20.296 21.0557 20.2775C21.1035 20.2592 21.1508 20.2609 21.1976 20.2827C21.7021 20.5091 22.5475 20.6955 23.7337 20.8418C24.8075 20.9743 25.8428 21.0405 26.8397 21.0405C28.3951 21.0405 29.7276 20.8663 30.8371 20.5179C31.3138 20.3682 31.6893 20.2012 31.9637 20.017C32.2624 19.8164 32.4118 19.6123 32.4118 19.4047C32.4118 19.3529 32.4302 19.3085 32.467 19.2715C32.5038 19.2345 32.5483 19.216 32.6004 19.216C32.6522 19.216 32.6966 19.2344 32.7336 19.2712C32.7706 19.3081 32.7891 19.3525 32.7891 19.4045Z" fill="white" fill-opacity="0.4"/>
</g>
<defs>
<linearGradient id="paint0_linear_14339_5226" x1="98" y1="15" x2="446.5" y2="15" gradientUnits="userSpaceOnUse">
<stop stop-color="#7A7A7A"/>
<stop offset="1" stop-color="#009910"/>
</linearGradient>
<linearGradient id="paint1_linear_14339_5226" x1="238" y1="14.5" x2="446" y2="14.5" gradientUnits="userSpaceOnUse">
<stop stop-color="#D9D9D9" stop-opacity="0"/>
<stop offset="1" stop-color="#00FF1A" stop-opacity="0.6"/>
</linearGradient>
<linearGradient id="paint2_linear_14339_5226" x1="231.297" y1="15" x2="0" y2="15" gradientUnits="userSpaceOnUse">
<stop stop-color="#4F4F4F"/>
<stop offset="1" stop-color="#00FF1A" stop-opacity="0"/>
</linearGradient>
</defs>
</svg>
